<svg width="94" height="88" viewBox="0 0 94 88" fill="none" xmlns="http://www.w3.org/2000/svg">
<g filter="url(#filter0_d_257_651)">
<path d="M84.1139 21.3741C83.9308 21.8449 83.7477 22.3156 82.5309 24.5188C81.3141 26.722 79.0691 30.6433 77.4127 33.3106C75.7563 35.9779 74.7565 37.2722 72.4554 39.6476C70.1544 42.023 66.5825 45.4401 63.3452 47.9249C60.1079 50.4097 57.3133 51.8586 55.2875 52.7647C52.1609 54.163 48.9781 54.4928 45.4269 54.698C42.4471 54.8702 39.4346 54.156 36.6722 53.5183C33.2778 52.7348 30.6063 49.9346 28.3858 47.1936C26.7998 45.2357 26.9556 42.0817 27.1535 39.404C27.3946 36.1415 31.2429 33.8186 34.3606 31.9851C37.0823 30.3845 40.5374 30.808 45.0266 32.3824C46.7741 32.9953 47.6755 34.4263 48.8748 36.1882C50.7011 38.8712 51.2512 41.5025 51.3425 43.284C51.4823 46.0093 50.6998 49.9536 49.6802 53.7213C49.1164 55.8047 47.7845 57.7462 46.089 60.0931C44.9681 61.6447 43.5304 62.7603 42.0026 63.9455C40.8304 64.8549 39.2404 65.5887 36.6459 66.5852C32.9871 67.9904 29.6931 68.4982 27.0003 68.5701C25.3029 68.6153 22.9327 68.3525 20.3211 67.71C14.8186 66.3563 11.4231 64.4798 10.2739 63.7909C9.40375 63.1729 8.45802 62.496 7.29207 61.6337C6.70043 61.1511 6.10885 60.5769 5.49935 59.9852" stroke="#83BCFF" stroke-width="3" stroke-linecap="round"/>
<path d="M87.0958 34.6989C87.0999 34.5147 87.104 34.3305 86.9873 33.0123C86.8706 31.694 86.633 29.2473 86.4932 27.9058C86.3363 26.4004 86.2561 25.7051 86.1299 24.4428C85.9636 22.7796 85.6028 21.6084 85.4571 21.1947C85.2246 20.5344 85.0672 19.8428 85.01 19.6476C84.964 19.4908 84.0968 19.8329 81.9211 20.9019C80.3685 21.6647 78.0457 23.1463 76.5382 24.1025C75.0308 25.0588 74.4448 25.5141 73.8451 26.0262C73.2454 26.5383 72.6496 27.0932 72.013 27.6412" stroke="#83BCFF" stroke-width="3" stroke-linecap="round"/>
</g>
<defs>
<filter id="filter0_d_257_651" x="0" y="18.1117" width="92.5977" height="59.9634" filterUnits="userSpaceOnUse" color-interpolation-filters="sRGB">
<feFlood flood-opacity="0" result="BackgroundImageFix"/>
<feColorMatrix in="SourceAlpha" type="matrix" values="0 0 0 0 0 0 0 0 0 0 0 0 0 0 0 0 0 0 127 0" result="hardAlpha"/>
<feOffset dy="4"/>
<feGaussianBlur stdDeviation="2"/>
<feComposite in2="hardAlpha" operator="out"/>
<feColorMatrix type="matrix" values="0 0 0 0 0 0 0 0 0 0 0 0 0 0 0 0 0 0 0.25 0"/>
<feBlend mode="normal" in2="BackgroundImageFix" result="effect1_dropShadow_257_651"/>
<feBlend mode="normal" in="SourceGraphic" in2="effect1_dropShadow_257_651" result="shape"/>
</filter>
</defs>
</svg>
